<?xml version="1.0" standalone="no"?>
<svg xmlns:xlink="http://www.w3.org/1999/xlink" id="wave" style="transform:rotate(180deg); transition: 0.3s" viewBox="0 0 1440 130" version="1.1" xmlns="http://www.w3.org/2000/svg"><defs><linearGradient id="sw-gradient-0" x1="0" x2="0" y1="1" y2="0"><stop stop-color="rgba(250, 242, 223, 1)" offset="0%"/><stop stop-color="rgba(250, 242, 223, 1)" offset="100%"/></linearGradient></defs><path style="transform:translate(0, 0px); opacity:1" fill="url(#sw-gradient-0)" d="M0,65L48,62.8C96,61,192,56,288,60.7C384,65,480,78,576,78C672,78,768,65,864,67.2C960,69,1056,87,1152,91C1248,95,1344,87,1440,80.2C1536,74,1632,69,1728,56.3C1824,43,1920,22,2016,21.7C2112,22,2208,43,2304,49.8C2400,56,2496,48,2592,52C2688,56,2784,74,2880,82.3C2976,91,3072,91,3168,91C3264,91,3360,91,3456,91C3552,91,3648,91,3744,93.2C3840,95,3936,100,4032,93.2C4128,87,4224,69,4320,54.2C4416,39,4512,26,4608,19.5C4704,13,4800,13,4896,17.3C4992,22,5088,30,5184,47.7C5280,65,5376,91,5472,84.5C5568,78,5664,39,5760,19.5C5856,0,5952,0,6048,19.5C6144,39,6240,78,6336,91C6432,104,6528,91,6624,73.7C6720,56,6816,35,6864,23.8L6912,13L6912,130L6864,130C6816,130,6720,130,6624,130C6528,130,6432,130,6336,130C6240,130,6144,130,6048,130C5952,130,5856,130,5760,130C5664,130,5568,130,5472,130C5376,130,5280,130,5184,130C5088,130,4992,130,4896,130C4800,130,4704,130,4608,130C4512,130,4416,130,4320,130C4224,130,4128,130,4032,130C3936,130,3840,130,3744,130C3648,130,3552,130,3456,130C3360,130,3264,130,3168,130C3072,130,2976,130,2880,130C2784,130,2688,130,2592,130C2496,130,2400,130,2304,130C2208,130,2112,130,2016,130C1920,130,1824,130,1728,130C1632,130,1536,130,1440,130C1344,130,1248,130,1152,130C1056,130,960,130,864,130C768,130,672,130,576,130C480,130,384,130,288,130C192,130,96,130,48,130L0,130Z"/></svg>